Coordinates
version=1
nRows=21
nColumns=12
inDegrees=yes

Units are S.I. units (second, meters, Newtons, ...)
Angles are in degrees

endheader
time	SC_y	SC_z	SC_x	AC_y	AC_z	AC_x	GH_y	GH_z	GH_yy	EL_x	PS_y
       0.0              -14.23         -1.486          1.454          52.95          8.722          6.236          1.234          18.93         -5.974          120.8          14.75
  0.009169              -14.23         -1.481          1.463          52.95          8.722          6.236          1.216          18.93          -5.96          120.8          14.76
   0.01834              -14.23         -1.477          1.472          52.95          8.722          6.237          1.197          18.93         -5.945          120.8          14.76
   0.02751              -14.23         -1.472          1.481          52.95          8.721          6.237          1.177          18.93         -5.929          120.8          14.77
   0.03668              -14.24         -1.466          1.491          52.95          8.721          6.238          1.155          18.93         -5.912          120.7          14.77
   0.04585              -14.24          -1.46          1.502          52.95           8.72          6.239          1.132          18.93         -5.894          120.7          14.78
   0.05501              -14.24         -1.454          1.513          52.95           8.72          6.239          1.107          18.93         -5.875          120.7          14.78
   0.06418              -14.25         -1.447          1.525          52.95           8.72           6.24          1.081          18.94         -5.854          120.7          14.79
   0.07335              -14.25          -1.44          1.538          52.96          8.719          6.241          1.053          18.94         -5.832          120.7          14.79
   0.08252              -14.25         -1.433          1.552          52.96          8.718          6.242          1.023          18.94         -5.809          120.6           14.8
   0.09169              -14.26         -1.425          1.567          52.96          8.718          6.242         0.9901          18.94         -5.783          120.6          14.81
    0.1009              -14.26         -1.416          1.583          52.96          8.717          6.243         0.9551          18.94         -5.756          120.6          14.81
      0.11              -14.27         -1.406          1.601          52.96          8.717          6.244         0.9174          18.94         -5.726          120.5          14.82
    0.1192              -14.27         -1.396          1.619          52.97          8.716          6.246         0.8767          18.94         -5.694          120.5          14.83
    0.1284              -14.28         -1.385           1.64          52.97          8.715          6.247         0.8326          18.95          -5.66          120.5          14.84
    0.1375              -14.28         -1.373          1.662          52.97          8.714          6.248         0.7849          18.95         -5.623          120.4          14.85
    0.1467              -14.29          -1.36          1.686          52.97          8.713          6.249         0.7329          18.95         -5.582          120.4          14.86
    0.1559               -14.3         -1.346          1.712          52.98          8.712          6.251         0.6763          18.95         -5.538          120.4          14.87
     0.165              -14.31          -1.33           1.74          52.98          8.711          6.253         0.6146          18.95          -5.49          120.3          14.89
    0.1742              -14.31         -1.313          1.772          52.99           8.71          6.254         0.5469          18.96         -5.437          120.3           14.9
    0.1834              -14.32         -1.295          1.806          52.99          8.709          6.256         0.4726          18.96         -5.379          120.2          14.92
